<?xml version="1.0" encoding="UTF-8" standalone="no"?>
<!-- Created with Inkscape (http://www.inkscape.org/) -->

<svg
   xmlns:dc="http://purl.org/dc/elements/1.1/"
   xmlns:cc="http://creativecommons.org/ns#"
   xmlns:rdf="http://www.w3.org/1999/02/22-rdf-syntax-ns#"
   xmlns:svg="http://www.w3.org/2000/svg"
   xmlns="http://www.w3.org/2000/svg"
   xmlns:sodipodi="http://sodipodi.sourceforge.net/DTD/sodipodi-0.dtd"
   xmlns:inkscape="http://www.inkscape.org/namespaces/inkscape"
   width="22"
   height="32"
   id="svg2"
   version="1.1"
   inkscape:version="0.48.2 r9819"
   sodipodi:docname="0.svg">
  <defs
     id="defs4">
    <filter
       inkscape:collect="always"
       id="filter3765"
       color-interpolation-filters="sRGB">
      <feGaussianBlur
         inkscape:collect="always"
         stdDeviation="0.58626709"
         id="feGaussianBlur3767" />
    </filter>
  </defs>
  <sodipodi:namedview
     id="base"
     pagecolor="#ffffff"
     bordercolor="#666666"
     borderopacity="1.0"
     inkscape:pageopacity="0.0"
     inkscape:pageshadow="2"
     inkscape:zoom="11.2"
     inkscape:cx="14.75748"
     inkscape:cy="18.869908"
     inkscape:document-units="px"
     inkscape:current-layer="layer1"
     showgrid="false"
     fit-margin-top="0"
     fit-margin-left="0"
     fit-margin-right="0"
     fit-margin-bottom="0"
     inkscape:showpageshadow="false"
     inkscape:window-width="920"
     inkscape:window-height="782"
     inkscape:window-x="547"
     inkscape:window-y="102"
     inkscape:window-maximized="0" />
  <metadata
     id="metadata7">
    <rdf:RDF>
      <cc:Work
         rdf:about="">
        <dc:format>image/svg+xml</dc:format>
        <dc:type
           rdf:resource="http://purl.org/dc/dcmitype/StillImage" />
        <dc:title />
      </cc:Work>
    </rdf:RDF>
  </metadata>
  <g
     inkscape:label="Layer 1"
     inkscape:groupmode="layer"
     id="layer1"
     transform="translate(0,-1020.3622)">
    <g
       style="font-size:13px;font-style:normal;font-variant:normal;font-weight:bold;font-stretch:normal;line-height:125%;letter-spacing:0px;word-spacing:0px;fill:#000000;fill-opacity:1;stroke:none;filter:url(#filter3765);font-family:Times New Roman;-inkscape-font-specification:Sans Bold"
       id="text3757">
      <path
         d="m 11.827697,1022.5396 c -3.1149682,0.074 -5.4739357,1.5426 -7.0769098,4.4047 -1.6029814,2.8621 -2.40797,6.6718 -2.4149683,11.4291 -0.019186,1.8456 0.25718,3.8009 0.8291,5.8659 0.571916,2.065 1.5544949,3.8336 2.9477396,5.3059 1.3932348,1.4724 3.3122454,2.2423 5.7570375,2.31 3.027448,-0.02 5.309416,-1.3028 6.845912,-3.8482 1.536461,-2.5453 2.30645,-6.2325 2.30997,-11.0616 0.03109,-2.1876 -0.185129,-4.3783 -0.648659,-6.5721 -0.463568,-2.1938 -1.361112,-4.033 -2.692632,-5.5175 -1.331554,-1.4845 -3.283748,-2.2566 -5.85659,-2.3162 z m 0.209997,1.722 c 1.140097,0.049 1.946836,1.127 2.420218,3.2339 0.473355,2.107 0.702602,4.949 0.687742,8.5259 8.6e-4,3.0284 -0.04289,5.4346 -0.131249,7.2187 -0.08839,1.7841 -0.226636,3.1718 -0.414744,4.1632 -0.188136,0.9406 -0.504882,1.6318 -0.950238,2.0737 -0.445382,0.4419 -1.024623,0.6606 -1.737727,0.6562 -0.743751,0.013 -1.345742,-0.2336 -1.805977,-0.7402 -0.4602528,-0.5066 -0.8522474,-1.3519 -1.175985,-2.5357 -0.2485045,-0.9135 -0.4235023,-2.1315 -0.5249939,-3.654 -0.101506,-1.5224 -0.1505051,-3.2864 -0.1469975,-5.2919 0.00699,-1.7867 0.1189917,-3.6522 0.3359957,-5.5964 0.2169892,-1.9442 0.4969853,-3.7047 0.8399892,-5.2815 0.1636151,-0.8137 0.4558612,-1.4752 0.8767395,-1.9844 0.420859,-0.5093 0.996601,-0.7718 1.727227,-0.7875 z"
         style="font-size:42px;fill:#000000;font-family:Adobe Caslon Pro Bold;-inkscape-font-specification:'Adobe Caslon Pro Bold, Bold'"
         id="path2989" />
    </g>
    <g
       style="font-size:13px;font-style:normal;font-variant:normal;font-weight:bold;font-stretch:normal;line-height:125%;letter-spacing:0px;word-spacing:0px;fill:#fefffa;fill-opacity:1;stroke:#000000;stroke-width:1;stroke-miterlimit:4;stroke-opacity:1;font-family:Times New Roman;-inkscape-font-specification:Sans Bold"
       id="text2985">
      <path
         d="m 10.420656,1021.1465 c -3.1149683,0.074 -5.4739358,1.5427 -7.0769099,4.4047 -1.6029814,2.8621 -2.40797001,6.6718 -2.41496832,11.4291 -0.0191863,1.8457 0.25718002,3.801 0.82910002,5.8659 0.571916,2.065 1.5544949,3.8337 2.9477396,5.306 1.3932348,1.4723 3.3122454,2.2423 5.7570376,2.3099 3.027448,-0.02 5.309416,-1.3028 6.845912,-3.8482 1.53646,-2.5453 2.30645,-6.2325 2.30997,-11.0616 0.03109,-2.1875 -0.185129,-4.3783 -0.648659,-6.5721 -0.463569,-2.1938 -1.361112,-4.033 -2.692632,-5.5175 -1.331554,-1.4845 -3.283749,-2.2565 -5.85659,-2.3162 z m 0.209997,1.722 c 1.140097,0.049 1.946836,1.127 2.420218,3.234 0.473355,2.107 0.702602,4.9489 0.687742,8.5258 8.6e-4,3.0284 -0.04289,5.4346 -0.131249,7.2187 -0.08839,1.7841 -0.226636,3.1718 -0.414744,4.1632 -0.188136,0.9406 -0.504882,1.6319 -0.950238,2.0737 -0.445382,0.4419 -1.024624,0.6606 -1.737728,0.6563 -0.7437498,0.013 -1.3457415,-0.2337 -1.8059763,-0.7403 -0.4602526,-0.5066 -0.8522472,-1.3518 -1.1759848,-2.5357 -0.2485045,-0.9135 -0.4235023,-2.1315 -0.5249939,-3.6539 -0.101506,-1.5225 -0.1505051,-3.2865 -0.1469975,-5.292 0.00699,-1.7867 0.1189917,-3.6522 0.3359957,-5.5964 0.2169892,-1.9442 0.4969853,-3.7047 0.8399892,-5.2814 0.1636151,-0.8138 0.4558612,-1.4752 0.876739,-1.9845 0.4208596,-0.5092 0.9966015,-0.7717 1.7272276,-0.7875 z"
         style="font-size:42px;font-family:Adobe Caslon Pro Bold;-inkscape-font-specification:'Adobe Caslon Pro Bold, Bold'"
         id="path2992" />
    </g>
  </g>
</svg>
