<?xml version="1.0" encoding="UTF-8" standalone="no"?>
<!-- Created with Inkscape (http://www.inkscape.org/) -->

<svg
   xmlns:dc="http://purl.org/dc/elements/1.1/"
   xmlns:cc="http://creativecommons.org/ns#"
   xmlns:rdf="http://www.w3.org/1999/02/22-rdf-syntax-ns#"
   xmlns:svg="http://www.w3.org/2000/svg"
   xmlns="http://www.w3.org/2000/svg"
   xmlns:sodipodi="http://sodipodi.sourceforge.net/DTD/sodipodi-0.dtd"
   xmlns:inkscape="http://www.inkscape.org/namespaces/inkscape"
   width="22"
   height="32"
   id="svg2"
   version="1.1"
   inkscape:version="0.48.2 r9819"
   sodipodi:docname="1.svg">
  <defs
     id="defs4">
    <filter
       inkscape:collect="always"
       id="filter3765"
       color-interpolation-filters="sRGB">
      <feGaussianBlur
         inkscape:collect="always"
         stdDeviation="0.58626709"
         id="feGaussianBlur3767" />
    </filter>
  </defs>
  <sodipodi:namedview
     id="base"
     pagecolor="#ffffff"
     bordercolor="#666666"
     borderopacity="1.0"
     inkscape:pageopacity="0.0"
     inkscape:pageshadow="2"
     inkscape:zoom="11.2"
     inkscape:cx="14.868321"
     inkscape:cy="12.575509"
     inkscape:document-units="px"
     inkscape:current-layer="layer1"
     showgrid="false"
     fit-margin-top="0"
     fit-margin-left="0"
     fit-margin-right="0"
     fit-margin-bottom="0"
     inkscape:showpageshadow="false"
     inkscape:window-width="708"
     inkscape:window-height="641"
     inkscape:window-x="582"
     inkscape:window-y="131"
     inkscape:window-maximized="0" />
  <metadata
     id="metadata7">
    <rdf:RDF>
      <cc:Work
         rdf:about="">
        <dc:format>image/svg+xml</dc:format>
        <dc:type
           rdf:resource="http://purl.org/dc/dcmitype/StillImage" />
        <dc:title />
      </cc:Work>
    </rdf:RDF>
  </metadata>
  <g
     inkscape:label="Layer 1"
     inkscape:groupmode="layer"
     id="layer1"
     transform="translate(0,-1020.3622)">
    <g
       style="font-size:13px;font-style:normal;font-variant:normal;font-weight:bold;font-stretch:normal;line-height:125%;letter-spacing:0px;word-spacing:0px;fill:#000000;fill-opacity:1;stroke:none;filter:url(#filter3765);font-family:Times New Roman;-inkscape-font-specification:Sans Bold"
       id="text3757"
       transform="matrix(0.99999715,0,0,1,-12.96838,1.0341277)">
      <path
         d="m 22.083315,1038.8349 c 0.0035,0.8802 0.007,2.1647 0.0105,3.8534 0.0035,1.6888 -0.01401,3.0362 -0.0525,4.0425 -0.01838,1.0316 -0.244131,1.6773 -0.677242,1.9372 -0.433126,0.2599 -1.215365,0.3701 -2.346719,0.3307 l -1.091986,0 c -0.171501,0 -0.311499,0.014 -0.419994,0.053 -0.108503,0.038 -0.164502,0.119 -0.167998,0.2415 l 0,1.134 c -0.0018,0.1042 0.02275,0.1794 0.0735,0.2258 0.05075,0.046 0.138245,0.069 0.262496,0.068 0.134294,0 0.710364,-0.012 1.728212,-0.033 1.017836,-0.02 2.091677,-0.041 3.221526,-0.061 1.129831,-0.02 1.929896,-0.031 2.400199,-0.033 0.30228,0 0.967013,0.012 1.994201,0.033 1.027161,0.02 2.031002,0.04 3.011526,0.061 0.980491,0.02 1.551892,0.031 1.714204,0.033 0.166206,9e-4 0.28519,-0.022 0.356952,-0.068 0.07173,-0.046 0.106724,-0.1216 0.104993,-0.2258 l 0,-1.092 c 0.007,-0.217 -0.133016,-0.329 -0.419994,-0.336 l -1.511981,0 c -1.012377,0.033 -1.654619,-0.1067 -1.926725,-0.4199 -0.272136,-0.3133 -0.399884,-0.9993 -0.383245,-2.058 -5.32e-4,-0.2269 -0.0042,-0.9865 -0.01089,-2.2789 -0.0068,-1.2924 -0.0135,-2.6804 -0.02022,-4.1641 -0.0068,-1.4838 -0.01038,-2.626 -0.01089,-3.4269 l 0,-1.764 c 0.0015,-1.8518 0.01243,-3.6967 0.03267,-5.5346 0.02021,-1.8378 0.04043,-3.3933 0.06067,-4.6666 0.02021,-1.2732 0.0311,-1.9887 0.03267,-2.1466 -1.4e-5,-0.1732 -0.03151,-0.3202 -0.0945,-0.441 -0.06301,-0.1207 -0.157512,-0.1837 -0.283495,-0.189 -0.143513,0 -0.276511,0.029 -0.398996,0.079 -0.122511,0.05 -0.255509,0.1077 -0.398994,0.1733 l -10.205869,4.9979 c -0.144376,0.084 -0.233626,0.168 -0.267747,0.252 -0.03413,0.084 -0.02888,0.168 0.01575,0.252 l 0.293996,0.84 c 0.04287,0.081 0.10412,0.1287 0.183747,0.1418 0.07962,0.013 0.17237,0.01 0.278247,-0.016 l 2.057973,-0.588 c 0.456738,-0.1225 0.834733,-0.203 1.133986,-0.2415 0.29924,-0.039 0.551236,-0.056 0.75599,-0.053 0.370987,0.017 0.626483,0.2135 0.76649,0.588 0.13999,0.3745 0.206489,0.8225 0.199498,1.344 z"
         style="font-size:42px;fill:#000000;font-family:Adobe Caslon Pro Bold;-inkscape-font-specification:'Adobe Caslon Pro Bold, Bold'"
         id="path2992"
         inkscape:connector-curvature="0" />
    </g>
    <g
       style="font-size:13px;font-style:normal;font-variant:normal;font-weight:bold;font-stretch:normal;line-height:125%;letter-spacing:0px;word-spacing:0px;fill:#fefffa;fill-opacity:1;stroke:#000000;stroke-width:1;stroke-miterlimit:4;stroke-opacity:1;font-family:Times New Roman;-inkscape-font-specification:Sans Bold;stroke-dasharray:none"
       id="text2985"
       transform="translate(6.2562501,0.83076873)">
      <path
         d="m 1.3516076,1037.7453 c 0.00349,0.8802 0.00699,2.1647 0.0105,3.8534 0.00349,1.6888 -0.014008,3.0362 -0.052499,4.0425 -0.018384,1.0316 -0.2441312,1.6773 -0.67724222,1.9372 -0.43312622,0.2599 -1.21536505,0.3701 -2.34671888,0.3307 l -1.0919859,0 c -0.1715016,0 -0.3114996,0.014 -0.4199946,0.053 -0.1085024,0.038 -0.1645017,0.119 -0.1679978,0.2415 l 0,1.134 c -0.00175,0.1042 0.022746,0.1794 0.0735,0.2258 0.050746,0.046 0.1382446,0.069 0.262496,0.068 0.134294,0 0.7103638,-0.012 1.7282113,-0.033 1.01783626,-0.02 2.09167714,-0.041 3.2215259,-0.061 1.129831,-0.02 1.9298967,-0.031 2.4001995,-0.033 0.3022801,0 0.967013,0.012 1.9942008,0.033 1.0271612,0.02 2.0310023,0.04 3.011526,0.061 0.9804913,0.02 1.5518923,0.031 1.7142043,0.033 0.166206,9e-4 0.28519,-0.022 0.356952,-0.068 0.07173,-0.046 0.106724,-0.1216 0.104993,-0.2258 l 0,-1.092 c 0.007,-0.217 -0.133016,-0.329 -0.419994,-0.336 l -1.511981,0 c -1.0123776,0.033 -1.6546188,-0.1067 -1.9267255,-0.4199 -0.2721358,-0.3133 -0.399884,-0.9993 -0.3832447,-2.058 -5.324e-4,-0.2269 -0.00416,-0.9865 -0.010889,-2.2789 -0.00676,-1.2924 -0.013496,-2.6804 -0.020223,-4.1641 -0.00676,-1.4838 -0.010384,-2.626 -0.010887,-3.4269 l 0,-1.764 c 0.00154,-1.8518 0.012431,-3.6967 0.032667,-5.5346 0.020207,-1.8378 0.040429,-3.3933 0.060665,-4.6666 0.020207,-1.2732 0.031096,-1.9887 0.032667,-2.1466 -1.43e-5,-0.1732 -0.031514,-0.3202 -0.094499,-0.441 -0.063014,-0.1207 -0.1575122,-0.1837 -0.2834958,-0.189 -0.1435125,0 -0.2765109,0.029 -0.3989954,0.079 -0.1225116,0.05 -0.2555096,0.1077 -0.3989943,0.1733 l -10.2058686,4.9979 c -0.1443769,0.084 -0.2336259,0.168 -0.2677475,0.252 -0.034127,0.084 -0.028876,0.168 0.015751,0.252 l 0.2939962,0.84 c 0.042871,0.081 0.10412,0.1287 0.1837473,0.1418 0.079621,0.013 0.1723698,0.01 0.2782467,-0.016 l 2.0579735,-0.588 c 0.4567377,-0.1225 0.83473247,-0.203 1.13398543,-0.2415 0.29923978,-0.039 0.55123628,-0.056 0.75599027,-0.053 0.37098708,0.017 0.6264833,0.2135 0.7664895,0.588 0.1399899,0.3745 0.2064892,0.8225 0.1994981,1.344 z"
         style="font-size:42px;font-family:Adobe Caslon Pro Bold;-inkscape-font-specification:'Adobe Caslon Pro Bold, Bold';stroke-width:1;stroke-miterlimit:4;stroke-dasharray:none"
         id="path2989"
         inkscape:connector-curvature="0" />
    </g>
  </g>
</svg>
