<?xml version="1.0" encoding="UTF-8" standalone="no"?>
<!-- Created with Inkscape (http://www.inkscape.org/) -->

<svg
   xmlns:dc="http://purl.org/dc/elements/1.1/"
   xmlns:cc="http://creativecommons.org/ns#"
   xmlns:rdf="http://www.w3.org/1999/02/22-rdf-syntax-ns#"
   xmlns:svg="http://www.w3.org/2000/svg"
   xmlns="http://www.w3.org/2000/svg"
   xmlns:sodipodi="http://sodipodi.sourceforge.net/DTD/sodipodi-0.dtd"
   xmlns:inkscape="http://www.inkscape.org/namespaces/inkscape"
   width="22"
   height="32"
   id="svg2"
   version="1.1"
   inkscape:version="0.48.2 r9819"
   sodipodi:docname="2.svg">
  <defs
     id="defs4">
    <filter
       inkscape:collect="always"
       id="filter3765"
       color-interpolation-filters="sRGB">
      <feGaussianBlur
         inkscape:collect="always"
         stdDeviation="0.58626709"
         id="feGaussianBlur3767" />
    </filter>
  </defs>
  <sodipodi:namedview
     id="base"
     pagecolor="#ffffff"
     bordercolor="#666666"
     borderopacity="1.0"
     inkscape:pageopacity="0.0"
     inkscape:pageshadow="2"
     inkscape:zoom="11.2"
     inkscape:cx="18.342365"
     inkscape:cy="16"
     inkscape:document-units="px"
     inkscape:current-layer="layer1"
     showgrid="false"
     fit-margin-top="0"
     fit-margin-left="0"
     fit-margin-right="0"
     fit-margin-bottom="0"
     inkscape:showpageshadow="false"
     inkscape:window-width="708"
     inkscape:window-height="641"
     inkscape:window-x="834"
     inkscape:window-y="140"
     inkscape:window-maximized="0" />
  <metadata
     id="metadata7">
    <rdf:RDF>
      <cc:Work
         rdf:about="">
        <dc:format>image/svg+xml</dc:format>
        <dc:type
           rdf:resource="http://purl.org/dc/dcmitype/StillImage" />
        <dc:title />
      </cc:Work>
    </rdf:RDF>
  </metadata>
  <g
     inkscape:label="Layer 1"
     inkscape:groupmode="layer"
     id="layer1"
     transform="translate(0,-1020.3622)">
    <g
       style="font-size:13px;font-style:normal;font-variant:normal;font-weight:bold;font-stretch:normal;line-height:125%;letter-spacing:0px;word-spacing:0px;fill:#000000;fill-opacity:1;stroke:none;filter:url(#filter3765);font-family:Times New Roman;-inkscape-font-specification:Sans Bold"
       id="text3757">
      <path
         d="m 14.679373,1050.9419 c 0.832976,-0.01 1.466467,0.02 1.900476,0.089 0.433978,0.069 0.710475,0.2354 0.829489,0.4988 0.07523,0.1645 0.145233,0.2765 0.209998,0.336 0.06473,0.06 0.176731,0.088 0.335995,0.084 0.183731,0 0.320229,-0.033 0.409495,-0.105 0.08923,-0.072 0.162731,-0.1908 0.220497,-0.357 l 2.981962,-7.7699 c 0.06298,-0.1435 0.05248,-0.266 -0.0315,-0.3675 -0.08402,-0.1015 -0.241516,-0.203 -0.472494,-0.3045 -0.202142,-0.105 -0.35439,-0.1365 -0.456744,-0.095 -0.102393,0.042 -0.202142,0.1575 -0.299246,0.3465 -0.431388,0.8129 -0.996631,1.5391 -1.695729,2.1787 -0.699133,0.6396 -1.715868,0.9774 -3.05021,1.0133 l -7.2659064,0 0,-0.168 c 0.6518592,-0.6012 1.4480982,-1.3099 2.3887194,-2.1263 0.940603,-0.8163 2.020338,-1.7876 3.239208,-2.9137 2.303831,-2.1621 3.943558,-4.1588 4.919186,-5.9902 0.975595,-1.8313 1.449838,-3.6285 1.422732,-5.3916 -0.04639,-2.1376 -0.804133,-3.9313 -2.273221,-5.3812 -1.469122,-1.4498 -3.371345,-2.2041 -5.706676,-2.2627 -2.00302,0.047 -3.6295901,0.4705 -4.8797151,1.2693 -1.2501367,0.7988 -2.2016051,1.6885 -2.854408,2.6693 -0.6528089,0.9808 -1.0847286,1.7679 -1.2957604,2.3613 -0.081375,0.1846 -0.1181249,0.3194 -0.1102489,0.4042 0.00787,0.085 0.044622,0.1462 0.1102489,0.1838 l 0.7139908,0.294 c 0.081371,0.047 0.16012,0.058 0.2362466,0.032 0.076121,-0.026 0.1653702,-0.1208 0.2677469,-0.2835 0.4567402,-0.7901 1.0867315,-1.5094 1.8899756,-2.1577 0.8032346,-0.6484 1.8112207,-1.0211 3.0239611,-1.1183 1.4262225,-0.017 2.5742065,0.4375 3.4439555,1.365 0.869727,0.9275 1.34572,2.1805 1.427982,3.759 0.04461,1.8191 -0.307135,3.5673 -1.055238,5.2446 -0.748126,1.6774 -1.782361,3.3311 -3.102709,4.9612 -1.5863613,1.981 -3.1385899,3.731 -4.65669,5.25 -1.5181079,1.5189 -2.6818416,2.6389 -3.4912048,3.3599 -0.1469987,0.1339 -0.2414976,0.2966 -0.283497,0.4883 -0.042,0.1916 -0.031499,0.3648 0.0315,0.5197 0.06125,0.1207 0.1277488,0.1942 0.199498,0.2205 0.071749,0.026 0.1592472,0.037 0.262496,0.031 0.088373,-9e-4 0.2476211,-0.01 0.4777436,-0.026 0.2301203,-0.017 0.5048666,-0.036 0.8242397,-0.058 0.3184939,-0.022 0.6579891,-0.041 1.0184868,-0.058 0.3604919,-0.017 0.7209869,-0.025 1.0814861,-0.026 z"
         style="font-size:42px;fill:#000000;font-family:Adobe Caslon Pro Bold;-inkscape-font-specification:'Adobe Caslon Pro Bold, Bold'"
         id="path2992" />
    </g>
    <g
       style="font-size:13px;font-style:normal;font-variant:normal;font-weight:bold;font-stretch:normal;line-height:125%;letter-spacing:0px;word-spacing:0px;fill:#fefffa;fill-opacity:1;stroke:#000000;stroke-width:1;stroke-miterlimit:4;stroke-opacity:1;font-family:Times New Roman;-inkscape-font-specification:Sans Bold;stroke-dasharray:none"
       id="text2985">
      <path
         d="m 13.672332,1049.949 c 0.832976,-0.01 1.466467,0.02 1.900476,0.089 0.433978,0.069 0.710475,0.2354 0.829489,0.4988 0.07523,0.1645 0.145233,0.2765 0.209997,0.336 0.06473,0.059 0.176731,0.087 0.335996,0.084 0.183731,0 0.320229,-0.033 0.409495,-0.105 0.08923,-0.072 0.162731,-0.1908 0.220497,-0.357 l 2.981962,-7.7699 c 0.06298,-0.1435 0.05248,-0.266 -0.0315,-0.3675 -0.08402,-0.1015 -0.241516,-0.203 -0.472494,-0.3045 -0.202142,-0.105 -0.35439,-0.1365 -0.456744,-0.095 -0.102393,0.042 -0.202142,0.1575 -0.299246,0.3465 -0.431388,0.8128 -0.996631,1.5391 -1.695729,2.1787 -0.699133,0.6396 -1.715868,0.9774 -3.05021,1.0132 l -7.2659065,0 0,-0.168 c 0.6518592,-0.6011 1.4480983,-1.3098 2.3887196,-2.1262 0.9406029,-0.8163 2.0203379,-1.7876 3.2392079,-2.9137 2.303831,-2.1621 3.943558,-4.1588 4.919186,-5.9902 0.975594,-1.8313 1.449838,-3.6285 1.422732,-5.3917 -0.04639,-2.1375 -0.804133,-3.9313 -2.273221,-5.3811 -1.469122,-1.4499 -3.371345,-2.2041 -5.706676,-2.2628 -2.00302,0.048 -3.6295902,0.4706 -4.8797152,1.2694 -1.2501366,0.7988 -2.201605,1.6885 -2.854408,2.6693 -0.6528089,0.9807 -1.0847286,1.7678 -1.2957604,2.3613 -0.081375,0.1846 -0.1181249,0.3194 -0.1102489,0.4042 0.00787,0.085 0.044623,0.1462 0.1102489,0.1838 l 0.7139908,0.294 c 0.081371,0.047 0.1601201,0.058 0.2362467,0.031 0.076121,-0.026 0.1653702,-0.1208 0.2677468,-0.2835 0.4567403,-0.7901 1.0867315,-1.5094 1.8899757,-2.1578 0.8032346,-0.6483 1.8112206,-1.0211 3.0239611,-1.1182 1.4262225,-0.018 2.5742065,0.4375 3.4439555,1.365 0.869727,0.9275 1.34572,2.1805 1.427982,3.7589 0.04461,1.8192 -0.307135,3.5674 -1.055238,5.2447 -0.748126,1.6774 -1.782361,3.3311 -3.1027087,4.9612 -1.5863617,1.981 -3.1385903,3.731 -4.6566904,5.2499 -1.5181078,1.519 -2.6818416,2.639 -3.49120471,3.36 -0.14699876,0.1339 -0.24149765,0.2966 -0.28349698,0.4882 -0.0419995,0.1917 -0.0314994,0.3649 0.0315002,0.5198 0.0612495,0.1207 0.12774883,0.1942 0.19949806,0.2205 0.0717486,0.026 0.15924711,0.037 0.26249601,0.032 0.088373,-9e-4 0.247621,-0.01 0.4777435,-0.026 0.2301204,-0.017 0.5048667,-0.036 0.8242397,-0.058 0.3184939,-0.022 0.6579892,-0.041 1.0184869,-0.058 0.3604919,-0.017 0.7209869,-0.025 1.0814861,-0.026 z"
         style="font-size:42px;font-family:Adobe Caslon Pro Bold;-inkscape-font-specification:'Adobe Caslon Pro Bold, Bold';stroke-width:1;stroke-miterlimit:4;stroke-dasharray:none"
         id="path2989" />
    </g>
  </g>
</svg>
