<?xml version="1.0" encoding="UTF-8" standalone="no"?>
<!-- Created with Inkscape (http://www.inkscape.org/) -->

<svg
   xmlns:dc="http://purl.org/dc/elements/1.1/"
   xmlns:cc="http://creativecommons.org/ns#"
   xmlns:rdf="http://www.w3.org/1999/02/22-rdf-syntax-ns#"
   xmlns:svg="http://www.w3.org/2000/svg"
   xmlns="http://www.w3.org/2000/svg"
   xmlns:sodipodi="http://sodipodi.sourceforge.net/DTD/sodipodi-0.dtd"
   xmlns:inkscape="http://www.inkscape.org/namespaces/inkscape"
   width="22"
   height="32"
   id="svg2"
   version="1.1"
   inkscape:version="0.48.2 r9819"
   sodipodi:docname="3.svg">
  <defs
     id="defs4">
    <filter
       inkscape:collect="always"
       id="filter3773">
      <feGaussianBlur
         inkscape:collect="always"
         stdDeviation="0.58601074"
         id="feGaussianBlur3775" />
    </filter>
  </defs>
  <sodipodi:namedview
     id="base"
     pagecolor="#ffffff"
     bordercolor="#666666"
     borderopacity="1.0"
     inkscape:pageopacity="0.0"
     inkscape:pageshadow="2"
     inkscape:zoom="11.2"
     inkscape:cx="14.75748"
     inkscape:cy="20.063748"
     inkscape:document-units="px"
     inkscape:current-layer="text2985"
     showgrid="false"
     fit-margin-top="0"
     fit-margin-left="0"
     fit-margin-right="0"
     fit-margin-bottom="0"
     inkscape:showpageshadow="false"
     inkscape:window-width="811"
     inkscape:window-height="721"
     inkscape:window-x="660"
     inkscape:window-y="161"
     inkscape:window-maximized="0" />
  <metadata
     id="metadata7">
    <rdf:RDF>
      <cc:Work
         rdf:about="">
        <dc:format>image/svg+xml</dc:format>
        <dc:type
           rdf:resource="http://purl.org/dc/dcmitype/StillImage" />
        <dc:title />
      </cc:Work>
    </rdf:RDF>
  </metadata>
  <g
     inkscape:label="Layer 1"
     inkscape:groupmode="layer"
     id="layer1"
     transform="translate(0,-1020.3622)">
    <g
       transform="matrix(0.9999959,0,0,1.0000041,-14.107608,-2.4870548)"
       style="font-size:12.99994564px;font-style:normal;font-variant:normal;font-weight:bold;font-stretch:normal;line-height:125%;letter-spacing:0px;word-spacing:0px;fill:#000000;fill-opacity:1;stroke:none;filter:url(#filter3773);font-family:Times New Roman;-inkscape-font-specification:Sans Bold"
       id="text3769">
      <path
         d="m 23.069745,1054.4383 c 3.562053,-0.08 6.412751,-1.0123 8.552104,-2.7982 2.13932,-1.7858 3.236551,-3.947 3.291694,-6.4836 -0.07614,-1.8803 -0.79538,-3.4641 -2.157713,-4.7512 -1.362368,-1.2871 -2.91109,-2.0833 -4.646171,-2.3887 l 0,-0.084 c 1.455086,-0.7481 2.702814,-1.6983 3.743186,-2.8507 1.04034,-1.1523 1.584581,-2.554 1.632723,-4.2052 -0.04377,-1.3422 -0.649258,-2.6161 -1.81647,-3.8219 -1.167246,-1.2057 -3.011712,-1.8497 -5.533405,-1.932 -2.628463,0.1024 -4.616427,0.8742 -5.963898,2.3152 -1.34748,1.4412 -2.159466,2.9374 -2.435959,4.4887 -0.091,0.378 -0.035,0.588 0.167998,0.63 l 0.839985,0.252 c 0.063,0.029 0.136494,0.013 0.220496,-0.047 0.084,-0.06 0.178494,-0.2126 0.283496,-0.4568 0.436612,-1.1199 1.043851,-2.0509 1.821718,-2.7929 0.777855,-0.742 1.752588,-1.127 2.924201,-1.155 1.298468,0.049 2.260951,0.4865 2.88745,1.3125 0.626478,0.826 0.937972,1.7465 0.934484,2.7614 -0.01751,1.6118 -0.497004,2.8822 -1.438476,3.8114 -0.941493,0.9293 -2.23997,1.5488 -3.895433,1.8585 -0.287002,0.057 -0.479498,0.1427 -0.57749,0.2573 -0.098,0.1146 -0.143504,0.2948 -0.136497,0.5407 -0.01226,0.2039 0.04374,0.3631 0.167997,0.4777 0.124241,0.1147 0.390236,0.2214 0.797986,0.3203 2.010706,0.4655 3.501679,1.2985 4.472923,2.4989 0.971221,1.2005 1.454213,2.7475 1.448976,4.641 -0.01664,1.5644 -0.45588,2.9084 -1.317728,4.0319 -0.861871,1.1235 -2.046599,1.7115 -3.554189,1.764 -0.924866,-0.027 -1.584604,-0.2039 -1.979216,-0.5303 -0.394624,-0.3263 -0.64487,-0.6396 -0.750737,-0.9397 -0.175878,-0.4401 -0.475122,-0.9039 -0.897736,-1.3912 -0.422623,-0.4874 -1.047361,-0.7516 -1.874217,-0.7928 -0.49612,0.041 -0.910862,0.2739 -1.24423,0.6983 -0.33337,0.4243 -0.506616,0.9196 -0.51974,1.4857 -0.04988,0.651 0.396367,1.344 1.338728,2.079 0.942355,0.7349 2.680074,1.1339 5.21316,1.1969 z"
         style="font-size:41.99982452px;fill:#000000;font-family:Adobe Caslon Pro Bold;-inkscape-font-specification:'Adobe Caslon Pro Bold, Bold'"
         id="path2989"
         inkscape:connector-curvature="0" />
    </g>
    <g
       style="font-size:13px;font-style:normal;font-variant:normal;font-weight:bold;font-stretch:normal;line-height:125%;letter-spacing:0px;word-spacing:0px;fill:#fefffa;fill-opacity:1;stroke:#000000;stroke-width:1;stroke-miterlimit:4;stroke-opacity:1;font-family:Times New Roman;-inkscape-font-specification:Sans Bold;stroke-dasharray:none"
       id="text2985"
       transform="translate(5.9673882,-0.26590001)">
      <path
         d="m 1.4882879,1051.0279 c 3.5620673,-0.08 6.4127774,-1.0123 8.5521391,-2.7982 2.139329,-1.7858 3.236564,-3.947 3.291708,-6.4836 -0.07614,-1.8804 -0.795383,-3.4641 -2.157722,-4.7512 -1.3623736,-1.2871 -2.911102,-2.0834 -4.64619,-2.3887 l 0,-0.084 c 1.4550919,-0.7481 2.7028245,-1.6984 3.743202,-2.8508 1.040344,-1.1523 1.584586,-2.554 1.632729,-4.2052 -0.04377,-1.3422 -0.64926,-2.6161 -1.816478,-3.8219 -1.1672501,-1.2057 -3.0117241,-1.8497 -5.5334275,-1.932 -2.6284744,0.1024 -4.61644683,0.8742 -5.9639233,2.3152 -1.3474857,1.4412 -2.1594745,2.9374 -2.4359686,4.4887 -0.091,0.378 -0.035001,0.588 0.1679978,0.63 l 0.8399892,0.252 c 0.062995,0.029 0.1364945,0.013 0.2204972,-0.047 0.083996,-0.06 0.1784945,-0.2126 0.2834963,-0.4568 0.4366147,-1.1199 1.0438559,-2.0509 1.82172564,-2.7929 0.77785859,-0.742 1.75259536,-1.127 2.92421326,-1.155 1.2984737,0.049 2.2609604,0.4865 2.8874629,1.3125 0.6264797,0.826 0.9379754,1.7465 0.9344879,2.7614 -0.017513,1.6118 -0.4970062,2.8823 -1.4384821,3.8115 -0.9414976,0.9292 -2.2399794,1.5487 -3.8954492,1.8585 -0.28700341,0.057 -0.47950095,0.1426 -0.57749319,0.2572 -0.098005,0.1146 -0.1435042,0.2949 -0.13649762,0.5407 -0.0122562,0.2039 0.043743,0.3632 0.16799784,0.4778 0.12424195,0.1146 0.39023826,0.2214 0.79798977,0.3202 2.0107143,0.4655 3.5016934,1.2985 4.4729417,2.499 0.971225,1.2005 1.4542185,2.7475 1.448982,4.6409 -0.016638,1.5645 -0.4558822,2.9085 -1.3177333,4.032 -0.8618749,1.1235 -2.0466083,1.7115 -3.554204,1.764 -0.9248699,-0.027 -1.58461068,-0.2039 -1.97922417,-0.5303 -0.39462608,-0.3263 -0.64487271,-0.6396 -0.75074065,-0.9397 -0.17587805,-0.4401 -0.47512418,-0.9039 -0.89773938,-1.3913 -0.4226245,-0.4873 -1.0473655,-0.7516 -1.8742249,-0.7927 -0.4961218,0.041 -0.9108664,0.2739 -1.244235,0.6983 -0.3333716,0.4243 -0.5066189,0.9196 -0.5197423,1.4857 -0.049875,0.651 0.3963686,1.344 1.3387331,2.079 0.9423597,0.7349 2.6800855,1.1339 5.2131825,1.1969 z"
         style="font-size:42px;font-family:Adobe Caslon Pro Bold;-inkscape-font-specification:'Adobe Caslon Pro Bold, Bold';stroke-width:1;stroke-miterlimit:4;stroke-dasharray:none"
         id="path2992"
         inkscape:connector-curvature="0" />
    </g>
  </g>
</svg>
