<?xml version="1.0" encoding="UTF-8" standalone="no"?>
<!-- Created with Inkscape (http://www.inkscape.org/) -->

<svg
   xmlns:dc="http://purl.org/dc/elements/1.1/"
   xmlns:cc="http://creativecommons.org/ns#"
   xmlns:rdf="http://www.w3.org/1999/02/22-rdf-syntax-ns#"
   xmlns:svg="http://www.w3.org/2000/svg"
   xmlns="http://www.w3.org/2000/svg"
   xmlns:sodipodi="http://sodipodi.sourceforge.net/DTD/sodipodi-0.dtd"
   xmlns:inkscape="http://www.inkscape.org/namespaces/inkscape"
   width="22"
   height="32"
   id="svg2"
   version="1.1"
   inkscape:version="0.48.2 r9819"
   sodipodi:docname="4.svg">
  <defs
     id="defs4">
    <filter
       inkscape:collect="always"
       id="filter3781">
      <feGaussianBlur
         inkscape:collect="always"
         stdDeviation="0.58293457"
         id="feGaussianBlur3783" />
    </filter>
  </defs>
  <sodipodi:namedview
     id="base"
     pagecolor="#ffffff"
     bordercolor="#666666"
     borderopacity="1.0"
     inkscape:pageopacity="0.0"
     inkscape:pageshadow="2"
     inkscape:zoom="11.2"
     inkscape:cx="14.75748"
     inkscape:cy="15.484607"
     inkscape:document-units="px"
     inkscape:current-layer="layer1"
     showgrid="false"
     fit-margin-top="0"
     fit-margin-left="0"
     fit-margin-right="0"
     fit-margin-bottom="0"
     inkscape:showpageshadow="false"
     inkscape:window-width="774"
     inkscape:window-height="728"
     inkscape:window-x="691"
     inkscape:window-y="150"
     inkscape:window-maximized="0" />
  <metadata
     id="metadata7">
    <rdf:RDF>
      <cc:Work
         rdf:about="">
        <dc:format>image/svg+xml</dc:format>
        <dc:type
           rdf:resource="http://purl.org/dc/dcmitype/StillImage" />
        <dc:title />
      </cc:Work>
    </rdf:RDF>
  </metadata>
  <g
     inkscape:label="Layer 1"
     inkscape:groupmode="layer"
     id="layer1"
     transform="translate(0,-1020.3622)">
    <g
       transform="matrix(0.95731753,0,0,1,-16.151162,-3.4821429)"
       style="font-size:13px;font-style:normal;font-variant:normal;font-weight:bold;font-stretch:normal;line-height:125%;letter-spacing:0px;word-spacing:0px;fill:#000000;fill-opacity:1;stroke:none;filter:url(#filter3781);font-family:Times New Roman;-inkscape-font-specification:Sans Bold"
       id="text3777">
      <path
         d="m 35.241499,1054.9797 c 0.244979,0 0.405976,-0.036 0.482993,-0.1207 0.07698,-0.085 0.111981,-0.2406 0.104999,-0.4673 l 0,-6.0059 2.477968,0 c 0.266851,-0 0.447098,-0.04 0.540743,-0.1155 0.0936,-0.075 0.137353,-0.1767 0.131248,-0.3045 l 0,-3.0239 c -0.0026,-0.1076 -0.04989,-0.1969 -0.141748,-0.2678 -0.09189,-0.071 -0.212642,-0.1076 -0.362245,-0.1102 l -2.645966,0 0,-16.8418 c 0.0017,-0.5556 -0.04377,-0.9353 -0.136499,-1.1392 -0.09277,-0.2039 -0.243264,-0.3001 -0.451493,-0.2888 -0.250264,0.01 -0.463761,0.077 -0.640493,0.21 -0.176764,0.133 -0.327262,0.287 -0.451493,0.462 l -15.035807,18.9838 c -0.178497,0.21 -0.346495,0.4515 -0.503993,0.7244 -0.157499,0.273 -0.241498,0.5775 -0.251997,0.9135 0.0053,0.2538 0.120748,0.4498 0.346496,0.588 0.225746,0.1383 0.530242,0.2083 0.913488,0.21 l 10.83586,0 0,6.1319 c -0.0026,0.203 0.03411,0.3325 0.11025,0.3885 0.07611,0.056 0.207359,0.081 0.393744,0.074 z m -12.053845,-10.4158 c -0.274752,-0.01 -0.439249,-0.088 -0.493494,-0.2468 -0.05425,-0.1583 0.01225,-0.3561 0.199498,-0.5932 l 6.803912,-8.5259 c 0.19861,-0.2537 0.378858,-0.3762 0.540743,-0.3675 0.161861,0.01 0.24761,0.1593 0.257247,0.4515 l 0,9.2819 z"
         style="font-size:42px;fill:#000000;font-family:Adobe Caslon Pro Bold;-inkscape-font-specification:'Adobe Caslon Pro Bold, Bold'"
         id="path2992" />
    </g>
    <g
       transform="scale(0.96492498,1.03635)"
       style="font-size:12.55596352000000100px;font-style:normal;font-variant:normal;font-weight:bold;font-stretch:normal;line-height:125%;letter-spacing:0px;word-spacing:0px;fill:#fefffa;fill-opacity:1;stroke:#000000;stroke-width:1;stroke-miterlimit:4;stroke-opacity:1;font-family:Times New Roman;-inkscape-font-specification:Sans Bold;stroke-dasharray:none"
       id="text2985">
      <path
         d="m 17.018374,1013.6202 c 0.236611,0 0.39211,-0.035 0.466496,-0.1166 0.07435,-0.082 0.108156,-0.2324 0.101412,-0.4513 l 0,-5.8008 2.393329,0 c 0.257736,-0 0.431827,-0.039 0.522273,-0.1116 0.09041,-0.073 0.132661,-0.1707 0.126766,-0.2941 l 0,-2.9206 c -0.0026,-0.104 -0.04819,-0.1902 -0.136907,-0.2586 -0.08876,-0.068 -0.205379,-0.104 -0.349872,-0.1065 l -2.555589,0 0,-16.26654 c 0.0017,-0.53661 -0.04227,-0.90339 -0.131836,-1.10032 -0.0896,-0.19688 -0.234955,-0.28984 -0.436072,-0.27889 -0.241715,0.007 -0.44792,0.0744 -0.618615,0.20283 -0.170727,0.12848 -0.316084,0.27722 -0.436072,0.44621 L 1.4414538,1004.8987 c -0.1724007,0.2029 -0.3346602,0.4361 -0.48677877,0.6998 -0.15211902,0.2636 -0.23324873,0.5577 -0.24338938,0.8823 0.00507,0.245 0.1166237,0.4343 0.33466035,0.5679 0.2180361,0.1335 0.5121313,0.2011 0.8822865,0.2028 l 10.4657435,0 0,5.9225 c -0.0025,0.196 0.03295,0.3211 0.106483,0.3752 0.07351,0.054 0.200277,0.078 0.380295,0.071 z M 5.3762487,1003.5601 c -0.2653667,-0.01 -0.4242457,-0.085 -0.4766375,-0.2383 -0.0524,-0.153 0.011827,-0.344 0.1926832,-0.573 l 6.5715136,-8.23469 c 0.191826,-0.24506 0.365917,-0.36337 0.522272,-0.35494 0.156333,0.008 0.239153,0.15383 0.248461,0.43607 l 0,8.96486 z"
         style="font-size:40.56541824000000000px;font-family:Adobe Caslon Pro Bold;-inkscape-font-specification:'Adobe Caslon Pro Bold, Bold';stroke-width:1;stroke-miterlimit:4;stroke-dasharray:none"
         id="path2989" />
    </g>
  </g>
</svg>
