<?xml version="1.0" encoding="UTF-8" standalone="no"?>
<!-- Created with Inkscape (http://www.inkscape.org/) -->

<svg
   xmlns:dc="http://purl.org/dc/elements/1.1/"
   xmlns:cc="http://creativecommons.org/ns#"
   xmlns:rdf="http://www.w3.org/1999/02/22-rdf-syntax-ns#"
   xmlns:svg="http://www.w3.org/2000/svg"
   xmlns="http://www.w3.org/2000/svg"
   xmlns:sodipodi="http://sodipodi.sourceforge.net/DTD/sodipodi-0.dtd"
   xmlns:inkscape="http://www.inkscape.org/namespaces/inkscape"
   width="22"
   height="32"
   id="svg2"
   version="1.1"
   inkscape:version="0.48.2 r9819"
   sodipodi:docname="5.svg">
  <defs
     id="defs4">
    <filter
       inkscape:collect="always"
       id="filter3789">
      <feGaussianBlur
         inkscape:collect="always"
         stdDeviation="0.5798584"
         id="feGaussianBlur3791" />
    </filter>
  </defs>
  <sodipodi:namedview
     id="base"
     pagecolor="#ffffff"
     bordercolor="#666666"
     borderopacity="1.0"
     inkscape:pageopacity="0.0"
     inkscape:pageshadow="2"
     inkscape:zoom="11.2"
     inkscape:cx="14.75748"
     inkscape:cy="14.715576"
     inkscape:document-units="px"
     inkscape:current-layer="layer1"
     showgrid="false"
     fit-margin-top="0"
     fit-margin-left="0"
     fit-margin-right="0"
     fit-margin-bottom="0"
     inkscape:showpageshadow="false"
     inkscape:window-width="795"
     inkscape:window-height="781"
     inkscape:window-x="575"
     inkscape:window-y="124"
     inkscape:window-maximized="0" />
  <metadata
     id="metadata7">
    <rdf:RDF>
      <cc:Work
         rdf:about="">
        <dc:format>image/svg+xml</dc:format>
        <dc:type
           rdf:resource="http://purl.org/dc/dcmitype/StillImage" />
        <dc:title />
      </cc:Work>
    </rdf:RDF>
  </metadata>
  <g
     inkscape:label="Layer 1"
     inkscape:groupmode="layer"
     id="layer1"
     transform="translate(0,-1020.3622)">
    <g
       transform="matrix(1,0,0,0.97044761,-13.571429,30.609905)"
       style="font-size:13px;font-style:normal;font-variant:normal;font-weight:bold;font-stretch:normal;line-height:125%;letter-spacing:0px;word-spacing:0px;fill:#000000;fill-opacity:1;stroke:none;filter:url(#filter3789);font-family:Times New Roman;-inkscape-font-specification:Sans Bold"
       id="text3785">
      <path
         d="m 21.260109,1028.7488 8.861886,0 c 0.628226,0.01 1.05172,-0.05 1.270483,-0.1732 0.218731,-0.1234 0.369229,-0.3596 0.451495,-0.7088 l 1.595979,-5.6279 c 0.04198,-0.1864 0.03148,-0.3281 -0.0315,-0.4253 -0.06302,-0.097 -0.178517,-0.1653 -0.346495,-0.2047 -0.26339,-0.105 -0.450638,-0.147 -0.561744,-0.126 -0.111141,0.021 -0.203889,0.105 -0.278245,0.252 -0.325514,0.6939 -0.65101,1.2171 -0.976488,1.5697 -0.325512,0.3527 -0.840005,0.5294 -1.54348,0.5303 l -9.32388,0 c -0.264252,0 -0.43925,0.046 -0.524994,0.147 -0.08575,0.1015 -0.134753,0.2765 -0.146997,0.525 l -1.55398,13.0618 c -0.049,0.42 0.174994,0.63 0.671991,0.63 0.829484,0 1.753472,0.088 2.771965,0.273 1.018479,0.1855 1.942466,0.4865 2.771964,0.903 0.787479,0.3762 1.480469,0.9992 2.078972,1.8689 0.59848,0.8698 0.913476,1.9968 0.944989,3.381 -0.08489,2.1507 -0.723627,3.6557 -1.916226,4.5149 -1.19262,0.8593 -2.429852,1.2723 -3.711702,1.239 -0.611623,-0.01 -1.152366,-0.068 -1.622229,-0.189 -0.469874,-0.1207 -0.853119,-0.2677 -1.149735,-0.441 -0.429623,-0.2756 -0.830368,-0.5013 -1.202235,-0.6772 -0.371873,-0.1759 -0.783117,-0.2861 -1.233734,-0.3308 -0.304497,-0.019 -0.566994,0.093 -0.78749,0.336 -0.220498,0.2433 -0.335996,0.6073 -0.346495,1.092 0.03762,0.6309 0.539868,1.1751 1.506731,1.6328 0.966859,0.4576 2.172592,0.6973 3.617203,0.7192 3.354698,-0.077 6.12666,-1.078 8.315893,-3.003 2.189205,-1.9249 3.323189,-4.3119 3.401956,-7.1609 -0.04027,-2.1157 -0.57926,-3.8272 -1.61698,-5.1344 -1.037751,-1.3072 -2.332733,-2.2417 -3.884949,-2.8035 -1.106871,-0.3771 -2.295105,-0.6518 -3.564704,-0.8242 -1.269617,-0.1724 -2.153355,-0.2476 -2.651216,-0.2258 z"
         style="font-size:42px;fill:#000000;font-family:Adobe Caslon Pro Bold;-inkscape-font-specification:'Adobe Caslon Pro Bold, Bold'"
         id="path2989"
         inkscape:connector-curvature="0" />
    </g>
    <g
       transform="scale(1.031765,0.96921295)"
       style="font-size:12.61622620000000000px;font-style:normal;font-variant:normal;font-weight:bold;font-stretch:normal;line-height:125%;letter-spacing:0px;word-spacing:0px;fill:#fefffa;fill-opacity:1;stroke:#000000;stroke-width:1;stroke-miterlimit:4;stroke-opacity:1;font-family:Times New Roman;-inkscape-font-specification:Sans Bold;stroke-dasharray:none"
       id="text2985">
      <path
         d="m 6.3325869,1060.7724 8.6002731,0 c 0.60968,0.01 1.020672,-0.048 1.232978,-0.1681 0.212273,-0.1197 0.358328,-0.349 0.438165,-0.6878 l 1.548864,-5.4618 c 0.04074,-0.1809 0.03055,-0.3184 -0.03057,-0.4127 -0.06116,-0.094 -0.173246,-0.1605 -0.336266,-0.1987 -0.255615,-0.1019 -0.437334,-0.1426 -0.54516,-0.1223 -0.10786,0.02 -0.197871,0.1019 -0.270032,0.2446 -0.315904,0.6734 -0.63179,1.1812 -0.947661,1.5234 -0.315902,0.3422 -0.815206,0.5137 -1.497914,0.5146 l -9.0486284,0 c -0.2564511,-0 -0.4262827,0.044 -0.5094955,0.1426 -0.083223,0.099 -0.1307753,0.2684 -0.1426579,0.5095 l -1.5081048,12.6762 c -0.047556,0.4076 0.1698277,0.6114 0.6521534,0.6114 0.8049969,-0 1.701707,0.085 2.6901328,0.265 0.9884126,0.18 1.8851226,0.4721 2.6901328,0.8763 0.7642316,0.3651 1.4367646,0.9697 2.0175986,1.8138 0.580812,0.8441 0.886509,1.9378 0.917092,3.2811 -0.08238,2.0873 -0.702265,3.5478 -1.859657,4.3817 -1.1574121,0.8339 -2.3581203,1.2347 -3.602128,1.2024 -0.5935676,-0.01 -1.1183469,-0.066 -1.5743394,-0.1834 -0.456003,-0.1172 -0.8279338,-0.2598 -1.1157934,-0.428 -0.4169402,-0.2675 -0.8058543,-0.4865 -1.1667435,-0.6572 -0.3608952,-0.1707 -0.759999,-0.2777 -1.1973126,-0.321 -0.2955087,-0.019 -0.5502561,0.09 -0.7642429,0.3261 -0.21398883,0.236 -0.32607738,0.5893 -0.33626601,1.0597 0.0365138,0.6123 0.52393011,1.1404 1.46225051,1.5845 0.9383162,0.4442 2.1084548,0.6768 3.5104192,0.6981 3.2556635,-0.075 5.9457941,-1.0462 8.0703981,-2.9144 2.124578,-1.8681 3.225086,-4.1846 3.301527,-6.9495 -0.03908,-2.0532 -0.562159,-3.7142 -1.569245,-4.9828 -1.007116,-1.2687 -2.263868,-2.1756 -3.770261,-2.7207 -1.074195,-0.366 -2.2273508,-0.6326 -3.4594704,-0.7999 -1.232136,-0.1673 -2.0897847,-0.2403 -2.5729487,-0.2191 z"
         style="font-size:40.76011275999999800px;font-family:Adobe Caslon Pro Bold;-inkscape-font-specification:'Adobe Caslon Pro Bold, Bold';stroke-width:1;stroke-miterlimit:4;stroke-dasharray:none"
         id="path2992" />
    </g>
  </g>
</svg>
