<?xml version="1.0" encoding="UTF-8" standalone="no"?>
<!-- Created with Inkscape (http://www.inkscape.org/) -->

<svg
   xmlns:dc="http://purl.org/dc/elements/1.1/"
   xmlns:cc="http://creativecommons.org/ns#"
   xmlns:rdf="http://www.w3.org/1999/02/22-rdf-syntax-ns#"
   xmlns:svg="http://www.w3.org/2000/svg"
   xmlns="http://www.w3.org/2000/svg"
   xmlns:sodipodi="http://sodipodi.sourceforge.net/DTD/sodipodi-0.dtd"
   xmlns:inkscape="http://www.inkscape.org/namespaces/inkscape"
   width="22"
   height="32"
   id="svg2"
   version="1.1"
   inkscape:version="0.48.2 r9819"
   sodipodi:docname="6.svg">
  <defs
     id="defs4">
    <filter
       inkscape:collect="always"
       id="filter3797">
      <feGaussianBlur
         inkscape:collect="always"
         stdDeviation="0.58908691"
         id="feGaussianBlur3799" />
    </filter>
  </defs>
  <sodipodi:namedview
     id="base"
     pagecolor="#ffffff"
     bordercolor="#666666"
     borderopacity="1.0"
     inkscape:pageopacity="0.0"
     inkscape:pageshadow="2"
     inkscape:zoom="11.2"
     inkscape:cx="11.145065"
     inkscape:cy="11.069039"
     inkscape:document-units="px"
     inkscape:current-layer="layer1"
     showgrid="false"
     fit-margin-top="0"
     fit-margin-left="0"
     fit-margin-right="0"
     fit-margin-bottom="0"
     inkscape:showpageshadow="false"
     inkscape:window-width="791"
     inkscape:window-height="811"
     inkscape:window-x="786"
     inkscape:window-y="83"
     inkscape:window-maximized="0" />
  <metadata
     id="metadata7">
    <rdf:RDF>
      <cc:Work
         rdf:about="">
        <dc:format>image/svg+xml</dc:format>
        <dc:type
           rdf:resource="http://purl.org/dc/dcmitype/StillImage" />
        <dc:title />
      </cc:Work>
    </rdf:RDF>
  </metadata>
  <g
     inkscape:label="Layer 1"
     inkscape:groupmode="layer"
     id="layer1"
     transform="translate(0,-1020.3622)">
    <g
       style="font-size:13px;font-style:normal;font-variant:normal;font-weight:bold;font-stretch:normal;line-height:125%;letter-spacing:0px;word-spacing:0px;fill:#000000;fill-opacity:1;stroke:none;filter:url(#filter3797);font-family:Times New Roman;-inkscape-font-specification:Sans Bold"
       id="text3793"
       transform="translate(-12.808638,-1.0828085)">
      <path
         d="m 23.406372,1052.7312 c 1.584592,-9e-4 2.909324,-0.2301 3.974198,-0.6878 1.064846,-0.4576 2.064082,-1.1383 2.997712,-2.0422 0.793596,-0.7052 1.442837,-1.6677 1.947724,-2.8874 0.504849,-1.2198 0.765596,-2.7492 0.782241,-4.5885 0.02098,-1.9424 -0.546013,-3.7064 -1.700979,-5.2919 -1.155002,-1.5855 -3.023976,-2.4255 -5.606927,-2.52 -0.964249,0.016 -1.860237,0.1838 -2.687965,0.504 -0.827748,0.3203 -1.47174,0.6983 -1.931976,1.134 l -0.251996,-0.126 c 0.642233,-2.6153 1.856717,-4.976 3.643453,-7.0822 1.786714,-2.106 3.568189,-3.5113 5.344431,-4.2157 0.370978,-0.1469 0.626474,-0.3044 0.76649,-0.4724 0.13998,-0.168 0.20648,-0.3465 0.199498,-0.5355 -0.01052,-0.1496 -0.08402,-0.2704 -0.220498,-0.3623 -0.136516,-0.092 -0.273014,-0.1391 -0.409494,-0.1417 -0.119891,-0.01 -0.331639,0.016 -0.635243,0.063 -0.303637,0.047 -0.735881,0.1522 -1.296732,0.315 -1.324747,0.3789 -2.675729,0.9441 -4.052949,1.6957 -1.377242,0.7516 -2.770222,1.8104 -4.178945,3.1762 -1.421863,1.3799 -2.673096,3.1771 -3.753703,5.3917 -1.080613,2.2146 -1.649355,4.7573 -1.706227,7.6281 -0.03763,1.1454 0.100622,2.4246 0.414745,3.8377 0.314119,1.4131 1.029859,2.8919 2.147222,4.4362 0.660612,0.8873 1.491851,1.5698 2.493717,2.0475 1.001855,0.4777 2.242588,0.7192 3.722203,0.7245 z m 0.419994,-1.554 c -0.941108,-0.047 -1.658209,-0.5087 -2.151305,-1.386 -0.493112,-0.8773 -0.827552,-1.8899 -1.00332,-3.0379 -0.175783,-1.148 -0.258227,-2.1513 -0.247331,-3.01 -0.01751,-1.4665 0.01749,-2.66 0.104998,-3.5805 0.08749,-0.9204 0.332488,-1.5889 0.734991,-2.0054 0.247614,-0.2686 0.57136,-0.4559 0.971238,-0.5618 0.399861,-0.1058 0.902104,-0.1566 1.506731,-0.1522 1.216222,0.052 2.12271,0.7569 2.719464,2.1157 0.596729,1.3589 0.894225,3.0616 0.892489,5.1082 -0.04989,2.8437 -0.443633,4.6637 -1.181236,5.4599 -0.737628,0.7963 -1.519867,1.1463 -2.346719,1.05 z"
         style="font-size:42px;fill:#000000;font-family:Adobe Caslon Pro Bold;-inkscape-font-specification:'Adobe Caslon Pro Bold, Bold'"
         id="path2992"
         inkscape:connector-curvature="0" />
    </g>
    <g
       style="font-size:13px;font-style:normal;font-variant:normal;font-weight:bold;font-stretch:normal;line-height:125%;letter-spacing:0px;word-spacing:0px;fill:#fefffa;fill-opacity:1;stroke:#000000;stroke-width:1;stroke-miterlimit:4;stroke-opacity:1;stroke-dasharray:none;font-family:Times New Roman;-inkscape-font-specification:Sans Bold"
       id="text2985"
       transform="translate(10.313239,-2.0943)">
      <path
         d="m -0.62931466,1052.4565 c 1.58459244,-8e-4 2.90932376,-0.2301 3.97419786,-0.6877 1.0648462,-0.4576 2.0640827,-1.1384 2.9977124,-2.0422 0.793596,-0.7053 1.4428367,-1.6678 1.947724,-2.8875 0.5048494,-1.2197 0.7655961,-2.7492 0.7822408,-4.5884 0.02098,-1.9425 -0.5460127,-3.7065 -1.7009787,-5.292 -1.155002,-1.5854 -3.0239758,-2.4254 -5.6069272,-2.5199 -0.9642491,0.016 -1.86023667,0.1837 -2.68796538,0.504 -0.82774812,0.3202 -1.47173922,0.6982 -1.93197512,1.1339 l -0.2519968,-0.126 c 0.6422337,-2.6153 1.8567169,-4.976 3.64345313,-7.0821 1.78671397,-2.1061 3.56818927,-3.5113 5.34443117,-4.2157 0.370978,-0.147 0.6264742,-0.3045 0.7664895,-0.4725 0.1399808,-0.168 0.2064801,-0.3465 0.1994981,-0.5355 -0.010517,-0.1496 -0.084017,-0.2703 -0.2204978,-0.3622 -0.1365156,-0.092 -0.2730135,-0.1391 -0.4094941,-0.1418 -0.119891,-0.01 -0.3316383,0.016 -0.6352428,0.063 -0.3036368,0.047 -0.7358805,0.1523 -1.2967323,0.315 -1.3247469,0.3789 -2.6757283,0.9441 -4.05294847,1.6957 -1.37724183,0.7517 -2.77022233,1.8104 -4.17894553,3.1762 -1.4218628,1.3799 -2.6730957,3.1771 -3.7537027,5.3917 -1.0806127,2.2146 -1.6493545,4.7573 -1.706227,7.6282 -0.037626,1.1453 0.1006226,2.4246 0.4147449,3.8377 0.3141191,1.4131 1.0298591,2.8918 2.1472221,4.4362 0.6606123,0.8872 1.4918506,1.5697 2.4937175,2.0474 1.0018544,0.4778 2.2425873,0.7193 3.72220244,0.7245 z m 0.41999459,-1.554 c -0.94110833,-0.047 -1.65820923,-0.5086 -2.15130503,-1.3859 -0.4931124,-0.8774 -0.8275523,-1.89 -1.0033207,-3.038 -0.175783,-1.148 -0.2582264,-2.1513 -0.2473305,-3.01 -0.017507,-1.4664 0.017493,-2.6599 0.1049981,-3.5804 0.087491,-0.9205 0.3324878,-1.589 0.7349911,-2.0055 0.2476136,-0.2686 0.5713592,-0.4558 0.9712378,-0.5617 0.399861,-0.1059 0.90210394,-0.1566 1.50673031,-0.1523 1.2162229,0.052 2.12271029,0.7569 2.71946499,2.1157 0.5967286,1.3589 0.8942244,3.0616 0.8924885,5.1082 -0.049888,2.8438 -0.443633,4.6637 -1.1812357,5.46 -0.7376282,0.7962 -1.51986706,1.1462 -2.34671887,1.0499 z"
         style="font-size:42px;stroke-width:1;stroke-miterlimit:4;stroke-dasharray:none;font-family:Adobe Caslon Pro Bold;-inkscape-font-specification:'Adobe Caslon Pro Bold, Bold'"
         id="path2989"
         inkscape:connector-curvature="0" />
    </g>
  </g>
</svg>
