<?xml version="1.0" encoding="UTF-8" standalone="no"?>
<!-- Created with Inkscape (http://www.inkscape.org/) -->

<svg
   xmlns:dc="http://purl.org/dc/elements/1.1/"
   xmlns:cc="http://creativecommons.org/ns#"
   xmlns:rdf="http://www.w3.org/1999/02/22-rdf-syntax-ns#"
   xmlns:svg="http://www.w3.org/2000/svg"
   xmlns="http://www.w3.org/2000/svg"
   xmlns:sodipodi="http://sodipodi.sourceforge.net/DTD/sodipodi-0.dtd"
   xmlns:inkscape="http://www.inkscape.org/namespaces/inkscape"
   width="22"
   height="32"
   id="svg2"
   version="1.1"
   inkscape:version="0.48.2 r9819"
   sodipodi:docname="7.svg">
  <defs
     id="defs4">
    <filter
       inkscape:collect="always"
       id="filter4041">
      <feGaussianBlur
         inkscape:collect="always"
         stdDeviation="0.58703613"
         id="feGaussianBlur4043" />
    </filter>
  </defs>
  <sodipodi:namedview
     id="base"
     pagecolor="#ffffff"
     bordercolor="#666666"
     borderopacity="1.0"
     inkscape:pageopacity="0.0"
     inkscape:pageshadow="2"
     inkscape:zoom="11.2"
     inkscape:cx="14.75748"
     inkscape:cy="19.792777"
     inkscape:document-units="px"
     inkscape:current-layer="layer1"
     showgrid="false"
     fit-margin-top="0"
     fit-margin-left="0"
     fit-margin-right="0"
     fit-margin-bottom="0"
     inkscape:showpageshadow="false"
     inkscape:window-width="950"
     inkscape:window-height="833"
     inkscape:window-x="549"
     inkscape:window-y="54"
     inkscape:window-maximized="0" />
  <metadata
     id="metadata7">
    <rdf:RDF>
      <cc:Work
         rdf:about="">
        <dc:format>image/svg+xml</dc:format>
        <dc:type
           rdf:resource="http://purl.org/dc/dcmitype/StillImage" />
        <dc:title />
      </cc:Work>
    </rdf:RDF>
  </metadata>
  <g
     inkscape:label="Layer 1"
     inkscape:groupmode="layer"
     id="layer1"
     transform="translate(0,-1020.3622)">
    <g
       transform="matrix(1,0,0,0.97580233,-18.881423,25.660094)"
       style="font-size:13px;font-style:normal;font-variant:normal;font-weight:bold;font-stretch:normal;line-height:125%;letter-spacing:0px;word-spacing:0px;fill:#000000;fill-opacity:1;stroke:none;filter:url(#filter4041);font-family:Times New Roman;-inkscape-font-specification:Sans Bold"
       id="text3269">
      <path
         d="m 27.108605,1022.7848 c -1.042119,0 -1.71936,-0.056 -2.031725,-0.1785 -0.312376,-0.1225 -0.433124,-0.329 -0.362244,-0.6195 0.04287,-0.3071 0.02012,-0.5118 -0.06825,-0.6142 -0.08838,-0.1024 -0.247626,-0.1496 -0.477743,-0.1418 -0.241502,-0 -0.399,0.014 -0.472495,0.053 -0.0735,0.039 -0.126002,0.1191 -0.157497,0.2415 l -2.645966,7.8119 c -0.06825,0.1785 -0.08925,0.3045 -0.063,0.378 0.02625,0.073 0.131248,0.1575 0.314997,0.252 0.18637,0.1094 0.349117,0.1637 0.488243,0.1628 0.13912,-9e-4 0.270369,-0.083 0.393745,-0.2468 0.550364,-0.7577 1.087607,-1.3317 1.611729,-1.722 0.524113,-0.3902 1.386852,-0.5862 2.588217,-0.5879 l 9.701875,0 c -0.705193,1.1031 -1.796141,2.8541 -3.272848,5.253 -1.476733,2.3989 -2.888121,4.7068 -4.234167,6.9237 -1.346064,2.2169 -2.175682,3.6039 -2.488856,4.161 -0.426126,0.7272 -0.833871,1.5514 -1.223236,2.4728 -0.389375,0.9213 -0.597621,1.7351 -0.62474,2.4412 0.01574,0.8085 0.257242,1.449 0.724491,1.9215 0.467238,0.4724 1.065729,0.7139 1.795477,0.7244 0.963354,-0.032 1.735093,-0.3666 2.315219,-1.0027 0.580108,-0.6361 0.984352,-1.3798 1.212735,-2.2312 0.532857,-2.0466 1.105099,-4.1063 1.716728,-6.1792 0.611604,-2.0728 1.467342,-4.479 2.567217,-7.2186 0.906472,-2.198 1.875959,-4.2805 2.908462,-6.2475 1.032468,-1.9669 1.728958,-3.2304 2.089474,-3.7904 0.160102,-0.2459 0.32285,-0.5206 0.488244,-0.8243 0.165352,-0.3035 0.254601,-0.5468 0.267746,-0.7297 -0.0044,-0.1662 -0.04815,-0.2852 -0.131249,-0.357 -0.08315,-0.072 -0.179394,-0.1067 -0.288746,-0.105 z"
         style="font-size:42px;fill:#000000;font-family:Adobe Caslon Pro Bold;-inkscape-font-specification:'Adobe Caslon Pro Bold, Bold'"
         id="path2992" />
    </g>
    <g
       transform="scale(1.0144744,0.98573211)"
       style="font-size:12.82176875999999900px;font-style:normal;font-variant:normal;font-weight:bold;font-stretch:normal;line-height:125%;letter-spacing:0px;word-spacing:0px;fill:#fefffa;fill-opacity:1;stroke:#000000;stroke-width:1;stroke-miterlimit:4;stroke-opacity:1;font-family:Times New Roman;-inkscape-font-specification:Sans Bold;stroke-dasharray:none"
       id="text2985">
      <path
         d="m 7.0148504,1037.3803 c -1.0278316,0 -1.6957875,-0.055 -2.0038696,-0.1761 -0.3080934,-0.1208 -0.427186,-0.3244 -0.357278,-0.611 0.042281,-0.3029 0.019843,-0.5048 -0.067314,-0.6058 -0.087167,-0.1009 -0.2442315,-0.1475 -0.4711936,-0.1398 -0.2381911,-0 -0.3935298,0.014 -0.4660166,0.052 -0.072495,0.038 -0.1242747,0.1174 -0.155338,0.2382 l -2.60968948,7.7048 c -0.0673158,0.176 -0.0880278,0.3003 -0.0621361,0.3728 0.0258888,0.072 0.129448,0.1553 0.31067796,0.2485 0.1838148,0.1079 0.3443309,0.1614 0.4815489,0.1605 0.1372134,-8e-4 0.2666625,-0.082 0.3883476,-0.2433 0.5428184,-0.7474 1.072695,-1.3135 1.5896313,-1.6984 0.5169278,-0.3849 1.3678379,-0.5782 2.5527328,-0.5799 l 9.5688611,0 c -0.695525,1.088 -1.771516,2.815 -3.227977,5.181 -1.456487,2.366 -2.8485242,4.6423 -4.1761161,6.8288 -1.3276098,2.1865 -2.1458534,3.5545 -2.4547334,4.104 -0.4202844,0.7171 -0.822439,1.5301 -1.2064652,2.4388 -0.3840367,0.9087 -0.5894282,1.7113 -0.6161751,2.4077 0.015529,0.7974 0.2537148,1.4292 0.7145578,1.8952 0.4608323,0.466 1.0511186,0.7042 1.7708607,0.7145 0.9501464,-0.032 1.711305,-0.3616 2.283478,-0.989 0.5721541,-0.6274 0.9708563,-1.3609 1.1961079,-2.2006 0.5255514,-2.0185 1.0899484,-4.05 1.6931914,-6.0944 0.603219,-2.0445 1.447225,-4.4177 2.53202,-7.1197 0.894045,-2.1679 1.85024,-4.2218 2.868587,-6.1618 1.018313,-1.94 1.705254,-3.1861 2.060827,-3.7385 0.157907,-0.2425 0.318424,-0.5134 0.48155,-0.8129 0.163085,-0.2995 0.25111,-0.5394 0.264075,-0.7198 -0.0043,-0.1639 -0.04749,-0.2813 -0.12945,-0.3521 -0.08201,-0.071 -0.176934,-0.1052 -0.284786,-0.1035 z"
         style="font-size:41.42417525999999800px;font-family:Adobe Caslon Pro Bold;-inkscape-font-specification:'Adobe Caslon Pro Bold, Bold';stroke-width:1;stroke-miterlimit:4;stroke-dasharray:none"
         id="path2989" />
    </g>
  </g>
</svg>
