<?xml version="1.0" encoding="UTF-8" standalone="no"?>
<!-- Created with Inkscape (http://www.inkscape.org/) -->

<svg
   xmlns:dc="http://purl.org/dc/elements/1.1/"
   xmlns:cc="http://creativecommons.org/ns#"
   xmlns:rdf="http://www.w3.org/1999/02/22-rdf-syntax-ns#"
   xmlns:svg="http://www.w3.org/2000/svg"
   xmlns="http://www.w3.org/2000/svg"
   xmlns:sodipodi="http://sodipodi.sourceforge.net/DTD/sodipodi-0.dtd"
   xmlns:inkscape="http://www.inkscape.org/namespaces/inkscape"
   width="22"
   height="32"
   id="svg2"
   version="1.1"
   inkscape:version="0.48.2 r9819"
   sodipodi:docname="9.svg">
  <defs
     id="defs4">
    <filter
       inkscape:collect="always"
       id="filter4095">
      <feGaussianBlur
         inkscape:collect="always"
         stdDeviation="0.58959961"
         id="feGaussianBlur4097" />
    </filter>
  </defs>
  <sodipodi:namedview
     id="base"
     pagecolor="#ffffff"
     bordercolor="#666666"
     borderopacity="1.0"
     inkscape:pageopacity="0.0"
     inkscape:pageshadow="2"
     inkscape:zoom="11.2"
     inkscape:cx="6.9753594"
     inkscape:cy="19.792777"
     inkscape:document-units="px"
     inkscape:current-layer="layer1"
     showgrid="false"
     fit-margin-top="0"
     fit-margin-left="0"
     fit-margin-right="0"
     fit-margin-bottom="0"
     inkscape:showpageshadow="false"
     inkscape:window-width="950"
     inkscape:window-height="833"
     inkscape:window-x="442"
     inkscape:window-y="93"
     inkscape:window-maximized="0" />
  <metadata
     id="metadata7">
    <rdf:RDF>
      <cc:Work
         rdf:about="">
        <dc:format>image/svg+xml</dc:format>
        <dc:type
           rdf:resource="http://purl.org/dc/dcmitype/StillImage" />
        <dc:title />
      </cc:Work>
    </rdf:RDF>
  </metadata>
  <g
     inkscape:label="Layer 1"
     inkscape:groupmode="layer"
     id="layer1"
     transform="translate(0,-1020.3622)">
    <g
       style="font-size:13px;font-style:normal;font-variant:normal;font-weight:bold;font-stretch:normal;line-height:125%;letter-spacing:0px;word-spacing:0px;fill:#000000;fill-opacity:1;stroke:none;filter:url(#filter4095);font-family:Times New Roman;-inkscape-font-specification:Sans Bold"
       id="text4091"
       transform="translate(-17.5,1.4285714)">
      <path
         d="m 28.794055,1021.0071 c -1.186494,-8e-4 -2.267979,0.1899 -3.244459,0.5723 -0.976494,0.3824 -1.910981,0.9616 -2.803463,1.7377 -0.824244,0.7166 -1.527735,1.7824 -2.110474,3.1972 -0.582744,1.4149 -0.88724,2.9111 -0.913487,4.4887 -0.02188,1.6529 0.515366,3.2821 1.611729,4.8877 1.096356,1.6056 2.883082,2.4683 5.360181,2.5882 1.2556,-0.019 2.261836,-0.1592 3.018711,-0.42 0.756853,-0.2607 1.290596,-0.5267 1.60123,-0.798 l 0.293996,0 c -0.513631,2.9584 -1.575867,5.4731 -3.18671,7.5442 -1.610863,2.0711 -3.334589,3.4623 -5.171183,4.1737 -0.151378,0.066 -0.279126,0.1645 -0.383245,0.294 -0.104128,0.1295 -0.158377,0.2695 -0.162748,0.4199 0.007,0.2468 0.077,0.4148 0.209998,0.504 0.132993,0.089 0.286991,0.1313 0.461994,0.126 0.156617,-8e-4 0.357864,-0.02 0.603742,-0.058 0.245866,-0.038 0.478613,-0.088 0.698241,-0.1523 1.232852,-0.3386 2.368586,-0.7848 3.407206,-1.3387 1.038601,-0.5539 2.142836,-1.3256 3.312707,-2.3152 2.249581,-1.9556 3.945307,-4.3443 5.087185,-7.1662 1.141841,-2.8218 1.714083,-5.683 1.716728,-8.5836 0.02273,-0.6816 -0.127768,-1.6178 -0.451494,-2.8087 -0.323766,-1.1909 -0.957257,-2.4526 -1.900476,-3.7852 -0.813756,-1.1034 -1.769243,-1.8996 -2.866464,-2.3887 -1.097249,-0.4891 -2.49373,-0.7289 -4.189445,-0.7193 z m 0.125998,1.554 c 1.273972,0.062 2.13846,0.7989 2.593467,2.2102 0.454981,1.4114 0.668478,3.1246 0.640492,5.1397 0.01574,1.0185 -0.0053,2.0475 -0.063,3.087 -0.05776,1.0395 -0.24676,1.7745 -0.566992,2.2049 -0.27651,0.2739 -0.616005,0.4822 -1.018488,0.6248 -0.402506,0.1426 -0.847,0.2144 -1.333482,0.2152 -1.158495,-0.041 -2.106982,-0.7253 -2.845464,-2.0527 -0.738498,-1.3273 -1.119992,-3.0511 -1.144485,-5.1712 8.68e-4,-1.9512 0.314114,-3.4772 0.939738,-4.5779 0.625609,-1.1007 1.558346,-1.6607 2.798214,-1.68 z"
         style="font-size:42px;fill:#000000;font-family:Adobe Caslon Pro Bold;-inkscape-font-specification:'Adobe Caslon Pro Bold, Bold'"
         id="path2992"
         inkscape:connector-curvature="0" />
    </g>
    <g
       style="font-size:13px;font-style:normal;font-variant:normal;font-weight:bold;font-stretch:normal;line-height:125%;letter-spacing:0px;word-spacing:0px;fill:#fefffa;fill-opacity:1;stroke:#000000;stroke-width:1;stroke-miterlimit:4;stroke-opacity:1;stroke-dasharray:none;font-family:Times New Roman;-inkscape-font-specification:Sans Bold"
       id="text2985"
       transform="translate(-0.09672664,-0.03042795)">
      <path
         d="m 9.9692518,1021.1766 c -1.1864942,-9e-4 -2.2679794,0.1899 -3.2444589,0.5722 -0.9764938,0.3824 -1.9109806,0.9616 -2.8034633,1.7377 -0.8242438,0.7167 -1.5277345,1.7824 -2.110474,3.1972 -0.5827441,1.4149 -0.88723946,2.9111 -0.91348702,4.4887 -0.021876,1.6529 0.51536642,3.2821 1.61172892,4.8877 1.0963566,1.6056 2.8830819,2.4684 5.3601813,2.5882 1.2556,-0.019 2.2618362,-0.1592 3.0187112,-0.42 0.756853,-0.2607 1.290595,-0.5267 1.601229,-0.798 l 0.293997,0 c -0.513631,2.9584 -1.575867,5.4731 -3.1867097,7.5442 -1.6108631,2.0711 -3.3345891,3.4623 -5.1711831,4.1737 -0.1513784,0.066 -0.2791267,0.1645 -0.3832454,0.294 -0.1041277,0.1295 -0.1583768,0.2695 -0.1627476,0.42 0.007,0.2467 0.076995,0.4147 0.2099973,0.504 0.1329932,0.089 0.286991,0.1312 0.461994,0.126 0.1566173,-9e-4 0.3578644,-0.02 0.603742,-0.058 0.2458663,-0.038 0.4786132,-0.088 0.6982413,-0.1522 1.2328519,-0.3386 2.3685863,-0.7849 3.4072064,-1.3388 1.0386008,-0.5538 2.1428358,-1.3256 3.3127068,-2.3152 2.249581,-1.9556 3.945307,-4.3443 5.087184,-7.1661 1.141841,-2.8219 1.714084,-5.6831 1.716729,-8.5837 0.02273,-0.6816 -0.127768,-1.6178 -0.451495,-2.8087 -0.323765,-1.1908 -0.957256,-2.4526 -1.900475,-3.7852 -0.813756,-1.1033 -1.769243,-1.8996 -2.866464,-2.3887 -1.09725,-0.4891 -2.49373,-0.7288 -4.1894452,-0.7192 z m 0.1259982,1.5539 c 1.273972,0.062 2.13846,0.7989 2.593467,2.2103 0.45498,1.4113 0.668477,3.1246 0.640492,5.1396 0.01573,1.0185 -0.0053,2.0475 -0.063,3.087 -0.05776,1.0395 -0.246761,1.7745 -0.566992,2.205 -0.27651,0.2739 -0.616005,0.4821 -1.018488,0.6247 -0.402507,0.1426 -0.847,0.2144 -1.333482,0.2153 -1.158495,-0.041 -2.1069821,-0.7254 -2.8454641,-2.0528 -0.7384979,-1.3273 -1.1199924,-3.051 -1.1444846,-5.1711 8.677e-4,-1.9513 0.3141132,-3.4772 0.9397376,-4.578 0.6256088,-1.1007 1.558346,-1.6607 2.7982141,-1.68 z"
         style="font-size:42px;stroke-width:1;stroke-miterlimit:4;stroke-dasharray:none;font-family:Adobe Caslon Pro Bold;-inkscape-font-specification:'Adobe Caslon Pro Bold, Bold'"
         id="path2989"
         inkscape:connector-curvature="0" />
    </g>
  </g>
</svg>
